ply
format ascii 1.0
comment Created by Blender 2.79 (sub 0) - www.blender.org, source file: ''
element vertex 548
property float x
property float y
property float z
property float nx
property float ny
property float nz
element face 1097
property list uchar uint vertex_indices
end_header
-0.077232 0.025001 -0.057289 -0.859767 0.329997 -0.389691
-0.080445 0.007787 -0.056003 -0.949431 -0.022858 -0.313089
-0.077500 0.025535 -0.036749 -0.932005 -0.349834 -0.094577
-0.080396 0.004635 -0.037688 -0.752037 -0.101932 0.651143
-0.071488 0.034662 -0.056338 -0.753441 0.575762 -0.317392
-0.070442 0.036604 -0.037688 -0.519944 0.447523 -0.727561
-0.063223 0.043132 -0.055919 -0.585864 0.752617 -0.300455
-0.059492 0.046019 -0.036555 0.056063 0.996612 -0.059908
-0.052092 0.049609 -0.057267 -0.392041 0.834590 -0.386914
-0.036930 0.055129 -0.037688 -0.134373 0.751762 0.645558
-0.036913 0.054126 -0.057511 -0.141392 0.921659 -0.361309
-0.018529 0.054745 -0.057026 0.134922 0.941618 -0.308420
-0.017587 0.054902 -0.036534 -0.567949 0.819605 -0.075014
0.001403 0.048823 -0.057273 0.416059 0.833979 -0.362377
0.011932 0.043188 -0.037687 0.934904 0.331736 -0.125858
0.016672 0.038002 -0.055041 0.711478 0.667867 -0.218421
0.020467 0.033593 -0.037688 0.620258 0.404614 0.671926
0.026101 0.022359 -0.055511 0.917417 0.311167 -0.247932
0.027148 0.018516 -0.037689 0.626972 0.772973 -0.096896
0.027592 0.011202 -0.056967 0.938658 0.032105 -0.343333
0.027377 0.000107 -0.037688 0.597339 -0.790674 -0.133946
0.026483 0.000770 -0.056207 0.911954 -0.250618 -0.324778
0.021300 -0.011477 -0.055749 0.829920 -0.500717 -0.245918
0.018153 -0.017426 -0.037688 0.559374 -0.524979 0.641438
0.010549 -0.023034 -0.054852 0.565691 -0.805597 -0.175909
-0.006432 -0.031697 -0.057518 0.307016 -0.882717 -0.355632
-0.015359 -0.035128 -0.037688 0.136509 -0.748283 0.649129
-0.026204 -0.035196 -0.055407 -0.011414 -0.968749 -0.247719
-0.054471 -0.029614 -0.037688 -0.332377 -0.684194 0.649098
-0.047950 -0.031448 -0.054586 -0.328593 -0.931913 -0.153417
-0.062103 -0.023469 -0.056448 -0.577136 -0.760338 -0.297922
-0.071011 -0.015589 -0.054794 -0.747215 -0.637074 -0.189093
-0.074395 -0.011205 -0.037688 -0.623402 -0.410291 0.665548
-0.077204 -0.004712 -0.056104 -0.884518 -0.348857 -0.309610
0.016916 0.035259 -0.058993 0.647694 0.522507 -0.554430
-0.075326 0.005038 -0.062438 -0.483627 -0.070376 -0.872402
-0.071163 -0.011519 -0.060290 -0.586963 -0.403485 -0.701865
0.013086 0.033761 -0.062562 0.291635 0.282144 -0.913938
-0.003909 0.045973 -0.062511 0.169317 0.411145 -0.895688
0.023146 0.020747 -0.060865 0.601825 0.196295 -0.774102
0.022357 0.005333 -0.062442 0.450056 -0.067019 -0.890439
0.019776 -0.007691 -0.061100 0.562639 -0.295083 -0.772210
0.015282 -0.016551 -0.059291 0.603229 -0.572039 -0.555712
0.006740 -0.019240 -0.062635 0.243080 -0.315592 -0.917203
-0.072642 0.021503 -0.062527 -0.388806 0.123661 -0.912961
0.001444 -0.026539 -0.059877 0.372784 -0.699759 -0.609363
-0.064358 0.036361 -0.062303 -0.352062 0.362102 -0.863063
-0.016861 -0.029455 -0.062500 0.057344 -0.463088 -0.884426
-0.030718 -0.030915 -0.062303 -0.030519 -0.516861 -0.855495
-0.044125 -0.031521 -0.058758 -0.232002 -0.831965 -0.503952
-0.040720 0.049256 -0.062424 -0.123722 0.449202 -0.884793
-0.057093 -0.022386 -0.062235 -0.276406 -0.433637 -0.857601
-0.019641 0.051644 -0.061552 0.069094 0.579180 -0.812220
-0.040450 0.000000 -0.037688 -0.186743 -0.590533 0.785089
-0.253588 0.140848 -0.005771 0.465194 -0.885098 -0.011231
-0.251952 0.140488 -0.033583 0.308756 -0.902890 -0.299020
-0.038584 0.000000 -0.000760 -0.217261 -0.722221 0.656636
-0.246903 0.142036 -0.037607 -0.554857 -0.828516 -0.075137
-0.251379 0.144543 -0.037688 -0.182592 0.050783 -0.981872
-0.250006 0.142638 -0.037652 0.014313 -0.013184 -0.999786
-0.251106 0.142168 -0.036772 -0.359661 -0.916715 -0.173925
-0.251997 0.141372 -0.035423 -0.206000 -0.757805 -0.619098
0.204903 0.018498 -0.037688 -0.198126 0.082492 -0.976684
0.233913 0.014437 -0.037688 0.194952 0.538621 -0.819666
0.225988 -0.000108 -0.037688 -0.279092 -0.434187 -0.856471
0.055018 0.193315 -0.037688 0.520676 0.134770 -0.843013
0.049780 0.174910 -0.037688 0.062166 -0.279611 -0.958068
-0.225016 0.240106 -0.037688 0.666829 0.482742 -0.567675
-0.238675 0.192113 -0.037366 0.289041 0.212104 -0.933500
-0.257999 0.241370 -0.037688 -0.474075 0.651234 -0.592517
-0.220289 0.150990 -0.037431 0.251137 0.129337 -0.959258
-0.282816 0.153271 -0.037688 -0.678396 0.194647 -0.708396
-0.213116 0.167187 -0.037226 0.145604 -0.321482 -0.935636
0.021377 0.192266 -0.036740 -0.710318 0.474624 -0.519730
0.014655 0.166608 -0.037111 -0.293435 -0.203742 -0.933988
0.034712 0.239120 -0.037688 -0.474319 0.651875 -0.591632
-0.253420 0.137657 -0.037653 0.501114 -0.355388 -0.788995
-0.219446 0.162919 -0.037399 0.217078 -0.149022 -0.964690
0.005265 0.018498 -0.037688 0.658498 0.498489 0.563768
-0.216356 0.151112 -0.034262 0.709616 0.575579 -0.406293
-0.026415 0.024123 -0.001511 -0.137364 0.345866 0.928159
-0.026911 0.025347 -0.037688 -0.278024 0.760979 0.586138
-0.216353 0.151203 -0.003695 0.747612 0.574053 0.333934
0.014475 0.166661 -0.000653 -0.294870 -0.206000 0.933042
0.014046 0.000000 -0.027638 0.294534 -0.912473 0.283914
0.014046 0.000000 -0.010050 0.301767 -0.904782 -0.300424
0.069058 0.000018 -0.010050 -0.701712 -0.711081 -0.043733
0.069158 -0.000007 -0.027638 -0.700186 -0.713431 0.026673
0.225850 -0.000334 -0.027638 -0.420118 -0.669851 -0.612171
0.225980 -0.000073 0.000000 -0.278726 -0.433363 0.857021
0.225850 -0.000334 -0.010050 -0.420515 -0.668752 0.613086
-0.251650 0.144720 -0.000014 -0.003418 -0.015046 0.999878
-0.247099 0.142089 -0.000148 -0.550981 -0.826991 0.111637
-0.250159 0.142638 -0.000243 -0.159764 -0.324412 0.932310
-0.251817 0.141681 -0.001921 -0.285379 -0.769127 0.571825
-0.251940 0.140893 -0.003041 -0.088870 -0.814386 0.573412
-0.251888 0.140488 -0.004874 -0.347728 -0.894101 0.282205
-0.280569 0.047737 -0.037688 0.661519 -0.378063 -0.647603
-0.265803 0.092291 -0.027638 0.949858 0.285592 -0.127201
-0.277932 0.053996 -0.027638 0.618366 -0.260384 -0.741478
-0.257918 0.122982 -0.027233 0.737358 -0.521317 0.429518
-0.252739 0.140264 -0.002760 0.871395 -0.308084 0.381695
-0.252745 0.139763 -0.001669 0.702780 0.146855 -0.696036
-0.253670 0.137462 -0.000018 0.542344 -0.352489 0.762596
-0.256832 0.126747 -0.018963 0.660390 -0.750877 -0.003632
-0.257980 0.122768 -0.011345 0.736137 -0.509445 -0.445509
-0.252860 0.139798 -0.036154 0.755303 0.162023 0.634999
-0.252743 0.140614 -0.034895 0.663045 -0.112674 -0.740013
-0.266861 0.092392 -0.010684 0.962127 0.271889 -0.018830
-0.278560 0.052354 -0.000000 0.696768 -0.300760 0.651143
-0.282180 0.045501 -0.010050 0.554399 -0.341319 0.759026
-0.241735 0.134962 -0.037366 0.691641 -0.712027 -0.120914
-0.241782 0.135453 -0.037189 0.922452 0.229225 0.310587
-0.245567 0.138530 -0.037414 0.547624 0.640248 0.538652
-0.259731 0.143956 -0.036438 0.962981 -0.268685 0.021638
-0.247337 0.140582 -0.037474 0.756554 0.653676 -0.017457
-0.253346 0.142798 -0.037012 -0.145177 -0.827570 0.542222
-0.258720 0.144089 -0.036483 0.075014 -0.991485 0.106204
0.133555 0.114141 -0.027638 0.099765 0.993347 0.057253
0.234352 0.014322 -0.027638 0.244087 0.744072 -0.621876
0.133640 0.114040 -0.010050 0.101016 0.994568 -0.023865
0.233559 0.013563 0.000000 0.137730 0.527512 0.838282
0.233706 0.013143 -0.010050 0.152562 0.795770 0.586016
0.097169 0.150814 -0.010050 0.699545 0.408887 -0.586016
0.097169 0.150814 -0.027638 0.699088 0.408765 0.586627
0.055018 0.193315 0.000000 0.520157 0.134648 0.843379
0.067940 0.156598 -0.010050 -0.597736 -0.795770 -0.096988
0.049780 0.174910 0.000000 0.061007 -0.279153 0.958281
0.067940 0.156598 -0.027638 -0.598010 -0.795404 0.098239
0.120026 0.104004 -0.027638 -0.998901 0.031129 0.034608
0.204903 0.018498 -0.027638 -0.772759 0.321818 -0.547014
0.204903 0.018498 0.000000 -0.199469 0.080691 0.976562
0.120204 0.103923 -0.010050 -0.998901 0.040864 -0.022279
0.204903 0.018498 -0.010050 -0.772698 0.321970 0.547014
0.070640 0.018498 -0.010050 -0.646229 0.762810 -0.020997
0.070349 0.018657 -0.027638 -0.640461 0.767205 0.034150
0.014046 0.018498 -0.027638 0.300912 0.904538 0.302011
0.005265 0.018498 0.000000 0.267739 0.202033 0.942045
0.014046 0.018498 -0.010050 0.301492 0.904508 -0.301492
-0.217941 0.158170 -0.033803 0.908383 -0.210120 -0.361461
-0.211748 0.165180 -0.033995 0.367504 -0.869350 -0.330332
-0.257999 0.241370 0.000000 -0.473617 0.650197 0.594043
-0.282787 0.153259 -0.000000 -0.677175 0.195929 0.709220
-0.225016 0.240106 0.000000 0.666311 0.481521 0.569292
-0.238672 0.192124 -0.000601 0.291818 0.213721 0.932279
0.021407 0.192374 -0.001017 -0.756951 0.490188 0.432112
0.034712 0.239120 0.000000 -0.474380 0.651753 0.591723
-0.218074 0.156908 -0.003362 0.910337 -0.008728 0.413739
-0.216009 0.161765 -0.003624 0.723014 -0.614307 0.315958
-0.210293 0.165496 -0.003544 0.218940 -0.917661 0.331553
-0.218913 0.150500 -0.000446 0.301981 0.190039 0.934172
-0.213104 0.167394 -0.000353 0.137089 -0.306162 0.942045
-0.220971 0.158877 -0.000334 0.289804 -0.063875 0.954924
0.231312 -0.011724 -0.000000 -0.547014 -0.543321 0.636799
0.232270 -0.012545 -0.010050 -0.400647 -0.463118 0.790521
0.243095 0.017057 -0.010050 -0.086825 0.619922 0.779809
0.251934 0.017186 0.000000 0.157964 0.762810 0.626972
0.260218 0.013704 -0.010050 0.350352 0.473128 0.808313
0.265734 0.007220 0.000000 0.691916 0.365154 0.622761
0.267610 -0.000366 -0.010050 0.585070 -0.011078 0.810877
0.266391 -0.005873 -0.000000 0.719657 -0.305582 0.623432
0.259664 -0.014070 -0.010050 0.339976 -0.488998 0.803278
0.255909 -0.015637 -0.000000 0.282357 -0.705832 0.649648
0.244020 -0.017030 -0.010050 -0.063936 -0.639912 0.765770
0.243076 -0.016906 -0.000000 -0.118625 -0.743522 0.658071
0.162708 0.131099 -0.010050 -0.295267 0.675558 0.675558
0.366809 -0.109971 -0.010050 0.453444 -0.589618 0.668355
0.401691 -0.073116 -0.010050 0.609760 -0.412793 0.676565
0.322191 -0.134349 -0.010050 0.272744 -0.680654 0.679891
0.418333 -0.038799 -0.010050 0.703848 -0.214911 0.677023
0.284210 -0.144881 -0.010050 0.133122 -0.714866 0.686422
0.243213 -0.148373 -0.010050 -0.010743 -0.732902 0.680197
0.425060 0.002719 -0.010050 0.745109 0.030457 0.666219
0.198004 -0.142676 -0.010050 -0.165197 -0.713462 0.680898
0.416081 0.045321 -0.010050 0.698416 0.233802 0.676382
0.153204 -0.126391 -0.010050 -0.340770 -0.651814 0.677480
0.398110 0.077947 -0.010050 0.602863 0.432569 0.670370
0.373251 0.104106 -0.010050 0.470870 0.558061 0.683218
0.109478 -0.094956 -0.010050 -0.534684 -0.520341 0.665822
0.337552 0.127838 -0.010050 0.334971 0.657796 0.674581
0.295438 0.142541 -0.010050 0.170080 0.723533 0.668966
0.084873 -0.061132 -0.010050 -0.642567 -0.336558 0.688345
0.071601 -0.027008 -0.010050 -0.721061 -0.170476 0.671529
0.255982 0.148150 -0.010050 0.014130 0.722404 0.691275
0.211712 0.145447 -0.010050 -0.103946 0.728660 0.676901
0.253015 0.016601 -0.027638 0.147618 0.580462 -0.800745
0.254311 0.016221 -0.037688 0.246590 0.734367 -0.632344
0.266974 0.005817 -0.027638 0.505783 0.199805 -0.839198
0.266706 0.005740 -0.037688 0.721793 0.294229 -0.626392
0.265440 -0.007339 -0.037688 0.696219 -0.337596 -0.633473
0.264250 -0.009329 -0.027638 0.490585 -0.345470 -0.799951
0.255909 -0.015637 -0.037688 0.320780 -0.697317 -0.640919
0.249685 -0.017552 -0.027638 0.068056 -0.608570 -0.790551
0.243076 -0.016906 -0.037688 -0.144475 -0.746147 -0.649892
0.232270 -0.012545 -0.027638 -0.388989 -0.467422 -0.793817
0.231312 -0.011724 -0.037688 -0.546922 -0.543413 -0.636799
0.159083 0.128891 -0.027638 -0.309763 0.647938 -0.695822
0.380113 -0.097969 -0.027638 0.518571 -0.525742 -0.674276
0.346987 -0.122762 -0.027638 0.363079 -0.648762 -0.668783
0.401473 -0.073013 -0.027638 0.603687 -0.405011 -0.686636
0.307407 -0.139311 -0.027638 0.208197 -0.697104 -0.686026
0.417173 -0.042380 -0.027638 0.694723 -0.244636 -0.676351
0.268525 -0.147234 -0.027638 0.072604 -0.727256 -0.682485
0.425090 0.000368 -0.027638 0.744499 0.005219 -0.667562
0.225470 -0.147238 -0.027638 -0.079012 -0.727683 -0.681326
0.414112 0.051372 -0.027638 0.686758 0.292856 -0.665242
0.182378 -0.138357 -0.027638 -0.232643 -0.698355 -0.676840
0.388015 0.090166 -0.027638 0.543077 0.494003 -0.678945
0.147114 -0.122696 -0.027638 -0.373455 -0.623737 -0.686605
0.116581 -0.101208 -0.027638 -0.479171 -0.558245 -0.677267
0.360146 0.114123 -0.027638 0.414319 0.603809 -0.680960
0.321783 0.134763 -0.027638 0.256630 0.691549 -0.675161
0.261807 0.148341 -0.027638 0.052339 0.737358 -0.673452
0.086243 -0.064696 -0.027638 -0.644612 -0.373211 -0.667196
0.071943 -0.026855 -0.027638 -0.707266 -0.167089 -0.686880
0.199948 0.143367 -0.027638 -0.167699 0.720359 -0.672994
-0.241562 0.135200 -0.000449 0.917081 -0.398541 0.007355
-0.259833 0.144031 -0.001367 0.925962 -0.375072 -0.043275
-0.246133 0.139009 -0.000231 0.636799 0.709220 0.302377
-0.250557 0.142152 -0.000599 0.422529 -0.083285 -0.902493
-0.253215 0.139292 -0.000011 0.037111 -0.018097 0.999146
-0.248541 0.136519 -0.000291 -0.176763 -0.957366 0.228462
-0.362726 -0.010967 -0.037688 0.224586 -0.723441 -0.652791
-0.385412 0.002855 -0.037688 0.092196 0.628925 -0.771935
-0.365836 0.007052 -0.037688 -0.221503 0.597674 -0.770501
-0.407701 0.005655 -0.037688 -0.380535 0.675710 -0.631306
-0.394750 0.007047 -0.037688 0.121555 0.745537 -0.655232
-0.382891 -0.014785 -0.037688 0.255928 -0.544939 -0.798425
-0.315307 0.042584 -0.037688 -0.531266 0.335337 -0.777978
-0.304635 0.019654 -0.037688 0.463424 -0.579669 -0.670186
-0.389271 -0.020567 -0.037688 0.304788 -0.697195 -0.648793
-0.416702 -0.006995 -0.037688 -0.791559 0.047273 -0.609241
-0.407037 -0.021405 -0.037688 -0.348003 -0.713370 -0.608203
-0.340087 0.019508 -0.037688 -0.386425 0.565386 -0.728660
-0.330729 0.001426 -0.037688 0.361309 -0.641224 -0.676931
-0.297207 0.025916 -0.027638 0.464492 -0.441939 -0.767388
-0.332728 0.000383 -0.027638 0.308023 -0.601306 -0.737236
-0.381231 -0.015468 -0.027638 0.265297 -0.651997 -0.710257
-0.369288 -0.153678 -0.027638 0.112461 -0.717582 -0.687307
-0.406791 -0.155729 -0.027638 -0.026582 -0.731498 -0.681295
-0.390034 -0.021208 -0.027638 0.192206 -0.575213 -0.795068
-0.455798 -0.148132 -0.027638 -0.199316 -0.706565 -0.678945
-0.406126 -0.021208 -0.027638 -0.233772 -0.559282 -0.795282
-0.492164 -0.133286 -0.027638 -0.328135 -0.645741 -0.689413
-0.521162 -0.114870 -0.027638 -0.449171 -0.580645 -0.679006
-0.416820 -0.009489 -0.027638 -0.506699 -0.077181 -0.858638
-0.339804 0.019211 -0.027638 -0.421033 0.621784 -0.660360
-0.383432 0.002155 -0.027638 0.026368 0.781793 -0.622944
-0.395540 0.007166 -0.027638 0.075930 0.634358 -0.769280
-0.552217 -0.082356 -0.027638 -0.613880 -0.427961 -0.663289
-0.294167 0.112787 -0.027638 -0.355998 0.901547 0.245857
-0.314945 0.043812 -0.027638 -0.646046 0.371807 -0.666585
-0.327738 0.128676 -0.027638 0.245216 0.688040 -0.682943
-0.574070 -0.033971 -0.027638 -0.733879 -0.155400 -0.661214
-0.367710 0.138485 -0.027638 0.103702 0.726951 -0.678793
-0.221580 0.008157 -0.027638 0.728050 0.092990 -0.679159
-0.222156 -0.029498 -0.027638 0.732139 -0.136204 -0.667379
-0.418853 0.140269 -0.027638 -0.085543 0.744865 -0.661702
-0.236557 -0.069292 -0.027638 0.635914 -0.361797 -0.681661
-0.573175 0.022152 -0.027638 -0.725883 0.180181 -0.663778
-0.408821 0.005055 -0.027638 -0.333262 0.478530 -0.812342
-0.231734 0.045056 -0.027638 0.669515 0.312632 -0.673757
-0.467874 0.128888 -0.027638 -0.253883 0.682516 -0.685324
-0.257846 -0.098339 -0.027638 0.542589 -0.491501 -0.681173
-0.548860 0.072358 -0.027638 -0.591540 0.452315 -0.667409
-0.508136 0.109469 -0.027638 -0.407849 0.612812 -0.676809
-0.286153 -0.122692 -0.027638 0.409833 -0.605487 -0.682211
-0.328673 -0.144245 -0.027638 0.254036 -0.686422 -0.681356
-0.289689 0.129210 -0.027220 -0.869259 -0.039247 0.492752
-0.252771 0.140836 0.000000 -0.002899 -0.004395 0.999969
-0.253189 0.141114 0.000000 -0.000153 -0.000397 0.999969
-0.384688 0.002321 0.000000 0.042055 0.593524 0.803674
-0.398030 0.008124 0.000000 -0.017121 0.787255 0.616352
-0.414777 -0.000685 0.000000 -0.686666 0.385510 0.616291
-0.299158 0.024350 0.000000 0.555712 -0.537248 0.634419
-0.317277 0.039537 0.000000 -0.511734 0.359478 0.780297
-0.382683 -0.015397 -0.000000 0.264870 -0.621845 0.736961
-0.396729 -0.022539 -0.000000 0.046632 -0.762169 0.645680
-0.337194 -0.002232 -0.000000 0.336955 -0.698813 0.630940
-0.349468 0.013791 0.000000 -0.311502 0.573687 0.757500
-0.413107 -0.017195 -0.000000 -0.607532 -0.503586 0.614215
-0.288565 0.133109 -0.019676 -0.933958 -0.356822 0.018586
-0.289628 0.129423 -0.011489 -0.881466 -0.051790 -0.469314
-0.313553 0.011720 -0.010050 0.366894 -0.507523 0.779595
-0.356267 -0.009351 -0.010050 0.190863 -0.620197 0.760857
-0.382891 -0.014785 -0.010050 0.332896 -0.699240 0.632588
-0.294511 0.112488 -0.010526 -0.369640 0.927152 -0.061098
-0.391243 -0.021673 -0.010050 0.203742 -0.565081 0.799463
-0.422154 -0.154561 -0.010050 -0.090182 -0.729118 0.678396
-0.378242 -0.154898 -0.010050 0.069887 -0.725364 0.684774
-0.406605 -0.020927 -0.010050 -0.229499 -0.573687 0.786248
-0.461674 -0.146022 -0.010050 -0.231391 -0.686422 0.689383
-0.494025 -0.132441 -0.010050 -0.343638 -0.642354 0.685018
-0.532150 -0.105893 -0.010050 -0.520341 -0.535905 0.664815
-0.415339 -0.012621 -0.010050 -0.552599 -0.176275 0.814570
-0.399621 0.007665 -0.010050 -0.070589 0.600635 0.796350
-0.385549 0.003083 -0.010050 0.075716 0.739433 0.668935
-0.363151 0.007701 -0.010050 -0.251320 0.718741 0.648213
-0.333371 0.024300 -0.010050 -0.477371 0.603961 0.638203
-0.312856 0.122440 -0.010050 0.304483 0.656606 0.690023
-0.314599 0.044445 -0.010050 -0.688498 0.328074 0.646748
-0.561088 -0.067473 -0.010050 -0.668538 -0.339335 0.661702
-0.347075 0.134405 -0.010050 0.172765 0.708487 0.684194
-0.573022 -0.034918 -0.010050 -0.700705 -0.160039 0.695242
-0.221706 -0.024176 -0.010050 0.725761 -0.090304 0.681936
-0.221327 0.006024 -0.010050 0.730430 0.075686 0.678762
-0.233618 -0.064640 -0.010050 0.671529 -0.327433 0.664693
-0.397294 0.141254 -0.010050 0.010163 0.744102 0.667959
-0.576089 0.000341 -0.010050 -0.758751 0.031068 0.650624
-0.414140 0.000289 -0.010050 -0.447768 0.324351 0.833216
-0.229485 0.039250 -0.010050 0.686331 0.258583 0.679739
-0.569618 0.031680 -0.010050 -0.685385 0.258553 0.680685
-0.456765 0.132820 -0.010050 -0.198035 0.712149 0.673482
-0.554282 0.064315 -0.010050 -0.636708 0.386486 0.667226
-0.259435 -0.100023 -0.010050 0.531449 -0.502152 0.682180
-0.498153 0.115124 -0.010050 -0.345317 0.641011 0.685415
-0.526514 0.095172 -0.010050 -0.496048 0.555498 0.667318
-0.288282 -0.124112 -0.010050 0.395062 -0.615833 0.681631
-0.246875 0.070050 -0.010050 0.606189 0.445021 0.659108
-0.331275 -0.145147 -0.010050 0.234993 -0.692282 0.682241
0.103506 0.087824 -0.010050 -0.563524 0.485519 0.668325
0.078107 0.048821 -0.010050 -0.707205 0.279305 0.649464
0.086794 0.066092 -0.027638 -0.643941 0.391034 -0.657552
0.067695 0.237857 -0.037688 0.667379 0.484176 -0.565783
-0.252771 0.140836 0.000000 0.002014 0.003021 0.999969
-0.232475 0.240392 -0.005025 0.342143 0.866512 0.363384
-0.232475 0.240392 -0.032663 0.342143 0.866634 -0.363140
-0.251572 0.241123 -0.005025 -0.244179 0.938139 0.245399
-0.251572 0.241123 -0.032663 -0.244942 0.937742 -0.246132
0.067695 0.237857 0.000000 0.667379 0.484176 0.565813
0.052223 0.238449 -0.006786 0.099368 0.866329 0.489456
0.060882 0.238118 -0.017376 0.603748 0.794214 0.068087
0.041461 0.238862 -0.013612 -0.475021 0.839290 0.264412
0.055169 0.238337 -0.029780 0.257149 0.843226 -0.472030
0.042389 0.238826 -0.026200 -0.401379 0.849025 -0.343547
-0.223405 0.273425 -0.005025 0.770440 0.096072 0.630177
-0.223459 0.273692 -0.032663 0.770104 0.095065 -0.630757
-0.243993 0.268684 -0.005025 -0.623737 -0.022462 0.781274
-0.244021 0.269890 -0.032663 -0.620991 -0.039338 -0.782800
0.058336 0.251392 -0.010373 0.683401 -0.423383 0.594684
0.051257 0.251510 -0.006940 -0.038392 -0.433424 0.900357
0.059063 0.251655 -0.026750 0.774773 -0.417005 -0.475204
0.061591 0.250535 -0.017372 0.953490 -0.273171 0.127323
0.054766 0.252894 -0.030485 0.195135 -0.498398 -0.844661
0.049263 0.252019 -0.030364 -0.215003 -0.406964 -0.887753
0.042856 0.252607 -0.025758 -0.773705 -0.409711 -0.483200
0.040620 0.254027 -0.018257 -0.904019 -0.426984 0.019623
0.042981 0.252211 -0.011905 -0.736808 -0.402295 0.543352
-0.234581 0.294228 -0.032663 0.630604 0.191137 -0.752159
-0.233518 0.291133 -0.005025 0.623493 0.216926 0.751091
-0.252421 0.291699 -0.005025 -0.524155 -0.365886 0.768975
-0.272131 0.307662 -0.032663 -0.568163 -0.485122 -0.664663
-0.252943 0.292279 -0.032663 -0.512589 -0.382977 -0.768456
0.060088 0.255049 -0.006799 0.338664 -0.712241 0.614765
0.065721 0.256304 -0.007590 0.081637 -0.993927 0.073397
0.047786 0.256531 -0.002188 -0.124516 -0.951628 0.280801
0.063995 0.254326 -0.018927 0.640675 -0.767754 0.006623
0.067594 0.256223 -0.028577 0.058412 -0.997009 -0.050417
0.059790 0.255611 -0.033022 0.442976 0.072787 -0.893551
0.044691 0.256839 -0.034438 -0.141850 -0.959746 -0.242317
0.037951 0.256971 -0.025837 -0.317454 -0.943419 -0.095431
0.038440 0.257045 -0.010157 -0.299051 -0.945006 0.132328
-0.238214 0.326321 -0.005025 0.677572 0.368999 0.636128
-0.237946 0.326723 -0.032663 0.683493 0.377148 -0.624928
-0.255736 0.319133 -0.032663 0.302255 -0.301584 -0.904233
-0.255736 0.319133 -0.005025 0.302194 -0.301584 0.904263
-0.277183 0.341615 -0.032663 -0.455306 0.632984 -0.626087
-0.261217 0.344512 -0.032663 0.181097 0.754723 -0.630512
-0.272951 0.333488 -0.032663 -0.298685 0.300790 -0.905667
-0.283881 0.329479 -0.032663 -0.784814 0.007141 -0.619648
-0.255736 0.333488 -0.032663 0.304910 0.302591 -0.903012
-0.272951 0.319133 -0.032663 -0.303568 -0.302011 -0.903653
-0.276129 0.313085 -0.005025 -0.606311 -0.429762 0.669057
-0.283892 0.330393 -0.005025 -0.784204 0.060427 0.617512
-0.272951 0.333488 -0.005025 -0.297952 0.299844 0.906247
-0.260110 0.344242 -0.005025 0.216346 0.745323 0.630573
-0.276178 0.342241 -0.005025 -0.411481 0.660909 0.627552
-0.255736 0.333488 -0.005025 0.303201 0.302042 0.903775
-0.272951 0.319133 -0.005025 -0.303110 -0.301889 0.903836
0.069898 0.256557 0.038556 -0.069826 -0.930692 0.359050
0.068517 0.256622 -0.075958 -0.085482 -0.925260 -0.369518
-0.025937 0.260130 -0.036016 -0.295053 -0.926115 -0.235023
0.094308 0.255507 -0.054876 0.290994 -0.954192 -0.069094
-0.026418 0.260434 0.000160 -0.367718 -0.860439 0.352672
0.093210 0.255812 0.026331 0.338878 -0.919980 0.196905
-0.032902 0.260450 -0.017989 -0.383160 -0.923582 -0.011963
-0.255736 0.319133 -0.042714 0.761711 -0.647877 0.000793
-0.255708 0.333618 -0.042849 0.481094 0.871029 -0.099155
-0.272951 0.319084 -0.038779 -0.696463 -0.717551 0.005280
-0.255736 0.319133 0.002736 0.894650 -0.446699 0.000000
-0.272951 0.319084 0.002736 -0.702994 -0.711142 -0.001526
0.095453 0.259442 -0.068180 0.732719 -0.489761 -0.472457
0.100334 0.259413 -0.055083 0.860958 -0.492660 -0.126347
0.087458 0.255987 -0.070041 0.221229 -0.935728 -0.274697
0.084600 0.259704 -0.078391 0.373211 -0.509537 -0.775262
0.069911 0.261021 -0.082019 -0.097018 -0.415326 -0.904477
0.100177 0.259143 0.017366 0.835902 -0.535051 0.122379
-0.024341 0.264001 -0.044111 -0.461287 -0.459426 -0.759026
0.084110 0.258955 0.040599 0.362743 -0.547380 0.754143
0.069779 0.260758 0.044180 -0.092257 -0.421644 0.902036
0.095864 0.259755 0.030206 0.754448 -0.410352 0.512223
-0.035387 0.263162 -0.007879 -0.821986 -0.505203 0.262795
-0.032899 0.264921 -0.036869 -0.780389 -0.367595 -0.505783
-0.032964 0.267686 -0.000628 -0.809626 -0.115696 0.575365
-0.037676 0.264640 -0.022874 -0.911069 -0.393933 -0.121250
-0.024678 0.265037 0.006618 -0.492141 -0.356731 0.794031
-0.255736 0.319133 0.005025 0.999969 -0.000336 -0.000488
-0.255723 0.333552 0.005041 0.491012 0.867153 0.083224
0.100525 0.268436 -0.059369 0.956023 0.170141 -0.238838
0.091077 0.268763 -0.074661 0.669698 0.258003 -0.696341
0.078259 0.269443 -0.081433 0.214942 0.240577 -0.946501
0.067527 0.271001 -0.081112 -0.189001 0.419630 -0.887783
0.101161 0.268268 0.017310 0.975341 0.174200 0.135411
-0.024620 0.274400 -0.043890 -0.491623 0.387829 -0.779656
0.087398 0.271864 0.039201 0.498428 0.452071 0.739677
0.070132 0.269600 0.044511 -0.082736 0.242683 0.966552
0.096361 0.268750 0.030432 0.813440 0.248207 0.525986
-0.034779 0.276204 -0.030752 -0.809198 0.482192 -0.335643
-0.036741 0.276391 -0.018317 -0.859432 0.510056 0.034028
-0.034606 0.276137 -0.006706 -0.806238 0.492447 0.327738
-0.024876 0.274505 0.005973 -0.507645 0.411359 0.757012
-0.259276 0.321394 -0.156261 0.868892 -0.411023 0.275735
-0.248764 0.331630 -0.181166 0.881466 0.318705 0.348430
-0.259874 0.332943 -0.155359 0.649617 0.735374 0.192846
-0.266132 0.321444 -0.122588 0.926450 -0.353984 0.127964
-0.266302 0.331522 -0.120697 0.906491 0.413221 0.086612
-0.266357 0.321504 -0.094166 0.973296 -0.210456 -0.091525
-0.262362 0.321439 -0.066369 0.897153 -0.366100 -0.247047
-0.264579 0.331484 -0.077546 0.899258 0.411756 -0.147374
-0.256191 0.322041 -0.046433 0.941099 -0.180517 -0.285836
-0.255721 0.331477 -0.046718 0.952513 0.120884 -0.279397
-0.255683 0.319833 -0.042719 0.333598 -0.938169 -0.092288
-0.269684 0.319274 -0.112214 0.276742 -0.960906 0.005799
-0.261866 0.319298 -0.155881 0.325541 -0.941069 0.091647
-0.265651 0.319297 -0.071036 0.317240 -0.947325 -0.043367
-0.255706 0.332509 -0.045709 0.536271 0.812860 -0.227149
-0.257396 0.333456 -0.044460 0.120151 0.984771 -0.125614
-0.284895 0.333240 -0.079171 -0.525651 0.839686 0.136326
-0.266603 0.333361 -0.077104 0.323252 0.944762 -0.053896
-0.287851 0.333400 -0.112810 -0.347362 0.937559 -0.016694
-0.246692 0.333314 -0.238852 -0.287027 0.956328 -0.055025
-0.233054 0.332994 -0.268830 0.570544 0.587207 -0.574114
-0.247118 0.332911 -0.268844 -0.574694 0.565477 -0.591540
-0.237655 0.333322 -0.223635 0.396405 0.915036 0.074587
-0.259262 0.333343 -0.192914 -0.245643 0.964263 -0.099185
-0.241391 0.333060 -0.203306 0.690848 0.697439 0.190374
-0.282123 0.333211 -0.150580 -0.579363 0.797204 -0.169530
-0.272947 0.332936 -0.048347 -0.628864 0.762383 0.152440
-0.268433 0.333372 -0.120447 0.324473 0.945585 0.023835
-0.273062 0.320860 -0.047389 -0.986816 -0.094058 0.131626
-0.272962 0.319166 -0.053134 -0.272042 -0.956816 0.102115
-0.287807 0.319319 -0.112198 -0.414960 -0.909818 0.002564
-0.283406 0.319163 -0.077947 -0.377422 -0.920560 0.100497
-0.246689 0.319749 -0.268834 -0.564806 -0.568255 -0.598346
-0.234351 0.319129 -0.268771 0.297098 -0.734977 -0.609485
-0.247288 0.319240 -0.232016 -0.298502 -0.953459 -0.042177
-0.245131 0.319225 -0.197262 0.350993 -0.930052 0.108432
-0.258708 0.319241 -0.192788 -0.278817 -0.954314 -0.107303
-0.281131 0.319155 -0.147879 -0.326365 -0.939299 -0.105777
-0.260314 0.333418 0.121781 0.229804 0.969787 -0.081729
-0.268436 0.333378 0.083162 0.240608 0.970367 -0.021180
-0.283790 0.333371 0.107013 -0.610340 0.769951 0.186071
-0.256987 0.333342 0.160176 -0.252266 0.963012 0.094363
-0.236308 0.333408 0.194703 0.406262 0.911222 -0.067660
-0.257220 0.333445 0.006699 0.144322 0.981536 0.125370
-0.272947 0.332936 0.010659 -0.642903 0.752922 -0.140416
-0.246331 0.333336 0.205167 -0.273995 0.961516 0.019562
-0.233002 0.332912 0.231144 0.587420 0.567675 0.576739
-0.247121 0.332714 0.231142 -0.564714 0.565569 0.601001
-0.264437 0.332940 0.035910 0.643941 0.757927 0.104129
-0.283615 0.333209 0.037377 -0.504776 0.852443 -0.135960
-0.287337 0.333430 0.061757 -0.350780 0.936033 -0.027100
-0.272956 0.319787 0.011528 -0.928556 -0.353557 -0.112735
-0.255663 0.319406 0.002740 0.275918 -0.957030 0.089145
-0.270985 0.319063 0.044952 0.075381 -0.997070 0.012787
-0.251599 0.319167 0.169371 -0.154607 -0.986602 0.051698
-0.243090 0.319173 0.165615 0.357952 -0.928648 -0.097262
-0.233428 0.319580 0.231156 0.559252 -0.592212 0.580065
-0.284146 0.319145 0.044461 -0.339030 -0.936155 -0.092990
-0.246889 0.320080 0.231129 -0.558367 -0.569384 0.603290
-0.287830 0.319333 0.074895 -0.374401 -0.927213 0.006714
-0.280337 0.319228 0.113899 -0.386517 -0.912198 0.135746
-0.263213 0.319339 0.113523 0.301218 -0.949736 -0.085025
-0.263602 0.319511 0.025871 0.612140 -0.771691 0.172399
-0.256265 0.321998 0.008687 0.895260 -0.337138 0.291177
-0.261999 0.321617 0.027730 0.910154 -0.360973 0.203162
-0.267096 0.320314 0.059530 0.794549 -0.605945 0.038697
-0.268066 0.319583 0.081975 0.967895 0.231086 -0.098636
-0.266602 0.321539 0.076028 0.936857 -0.347453 -0.038972
-0.264011 0.321716 0.098546 0.937834 -0.311380 -0.153142
-0.257614 0.321428 0.122959 0.856960 -0.409589 -0.312723
0.097829 0.273288 -0.061212 0.736381 0.616657 -0.278207
0.081964 0.273933 -0.077734 0.321696 0.682791 -0.655934
0.091507 0.277291 -0.060869 0.329966 0.929807 -0.162816
0.071628 0.277967 -0.073454 0.000366 0.925687 -0.378216
0.098282 0.273327 0.020716 0.744987 0.638142 0.194189
0.091152 0.277350 0.023453 0.342814 0.921903 0.180303
-0.025048 0.280076 -0.037050 -0.335490 0.842494 -0.421400
-0.026676 0.282056 -0.027305 -0.272927 0.956999 -0.098178
0.073246 0.274391 0.041912 0.050111 0.687857 0.724082
0.073919 0.278026 0.034673 0.065676 0.956420 0.284402
-0.025675 0.281768 -0.006620 -0.288949 0.935667 0.202429
-0.022129 0.279754 0.001490 -0.318552 0.830866 0.456191
-0.243255 0.321447 -0.194841 0.874172 -0.387280 0.292886
-0.234782 0.320748 -0.230639 0.800623 -0.584552 0.131382
-0.234000 0.331547 -0.233868 0.892972 0.437269 0.106662
-0.232452 0.321051 -0.268810 0.737724 -0.286203 -0.611377
-0.288249 0.331120 -0.088198 -0.920560 0.361553 0.147557
-0.281802 0.331800 -0.064667 -0.816401 0.474166 0.329569
-0.280880 0.331516 -0.157027 -0.844600 0.379589 -0.377544
-0.288443 0.331916 -0.128405 -0.849483 0.508286 -0.141331
-0.290018 0.331784 -0.108946 -0.894345 0.446394 0.029054
-0.248293 0.331572 -0.243141 -0.913816 0.398419 -0.078585
-0.255932 0.331702 -0.208047 -0.922819 0.262612 -0.281777
-0.265501 0.331567 -0.185035 -0.819483 0.393262 -0.416852
-0.279274 0.320853 -0.159799 -0.768212 -0.529740 -0.359416
-0.285815 0.321035 -0.140735 -0.850002 -0.488266 -0.197607
-0.289681 0.321237 -0.118400 -0.886959 -0.453871 -0.085269
-0.288491 0.320800 -0.091535 -0.843867 -0.524613 0.112308
-0.283214 0.321321 -0.068887 -0.833644 -0.462447 0.301889
-0.251691 0.321457 -0.222810 -0.903531 -0.364116 -0.225837
-0.247754 0.321439 -0.253320 -0.979461 -0.193487 -0.056337
-0.263163 0.321463 -0.189547 -0.821406 -0.413923 -0.392315
-0.255724 0.331195 0.009061 0.950194 0.106296 0.292886
-0.266828 0.331522 0.061228 0.996368 -0.060183 0.060121
-0.263055 0.331491 0.104023 0.941710 0.266518 -0.205267
-0.248864 0.331589 0.143202 0.835139 0.437117 -0.333781
-0.255728 0.332458 0.008073 0.594317 0.771111 0.228339
-0.233572 0.331560 0.200746 0.916654 0.386822 -0.100223
-0.240578 0.332450 0.166678 0.748222 0.630909 -0.205054
-0.281593 0.331658 0.026340 -0.832728 0.438704 -0.337718
-0.288996 0.331575 0.055203 -0.895566 0.424787 -0.132145
-0.287793 0.332009 0.094856 -0.847194 0.512497 0.139836
-0.279510 0.331775 0.121982 -0.797082 0.486373 0.357830
-0.289885 0.331854 0.074036 -0.844722 0.534623 0.024171
-0.263272 0.331562 0.151705 -0.839808 0.347209 0.417249
-0.254542 0.331566 0.175420 -0.942106 0.235084 0.239021
-0.249123 0.331573 0.200224 -0.915769 0.375500 0.142552
-0.281508 0.321220 0.026103 -0.810633 -0.485031 -0.327982
-0.288094 0.320683 0.052110 -0.843959 -0.518326 -0.137852
-0.290042 0.321268 0.077295 -0.903256 -0.424329 0.063509
-0.285811 0.321045 0.103091 -0.835932 -0.511551 0.198737
-0.279236 0.321305 0.122549 -0.814966 -0.440962 0.375958
-0.241058 0.321474 0.163182 0.877346 -0.394086 -0.273659
-0.233460 0.320279 0.206187 0.788354 -0.611805 -0.064455
-0.249632 0.321363 0.195337 -0.991394 -0.041749 0.124027
-0.256653 0.320619 0.167527 -0.746696 -0.615619 0.251778
-0.265480 0.321463 0.147316 -0.848567 -0.277291 0.450545
3 0 1 2
3 1 3 2
3 4 0 5
3 0 2 5
3 6 4 5
3 6 5 7
3 8 6 7
3 8 7 9
3 10 8 9
3 11 10 9
3 11 9 12
3 13 11 12
3 13 12 14
3 15 13 14
3 15 14 16
3 17 15 16
3 17 16 18
3 19 17 20
3 17 18 20
3 21 19 20
3 22 21 23
3 21 20 23
3 24 22 23
3 25 24 23
3 25 23 26
3 27 25 26
3 27 26 28
3 29 27 28
3 30 29 28
3 31 30 28
3 31 28 32
3 33 31 32
3 33 32 3
3 1 33 3
3 34 13 15
3 35 33 1
3 35 36 33
3 37 38 13
3 34 37 13
3 17 34 15
3 39 34 17
3 37 34 39
3 19 39 17
3 40 37 39
3 40 39 19
3 40 19 21
3 41 40 21
3 41 21 22
3 42 41 22
3 43 40 41
3 42 22 24
3 0 35 1
3 43 41 42
3 44 35 0
3 45 42 24
3 45 24 25
3 43 42 45
3 46 44 0
3 46 0 4
3 47 45 25
3 43 45 47
3 46 4 6
3 48 25 27
3 47 25 48
3 8 46 6
3 48 27 49
3 50 46 8
3 49 27 29
3 50 8 10
3 30 49 29
3 51 48 49
3 30 51 49
3 52 10 11
3 50 10 52
3 36 51 30
3 36 30 31
3 52 38 50
3 33 36 31
3 38 52 11
3 13 38 11
3 35 51 36
3 20 26 23
3 53 28 26
3 53 26 20
3 32 28 53
3 3 32 53
3 2 3 53
3 2 54 55
3 56 2 53
3 56 54 2
3 57 58 2
3 59 57 2
3 60 59 2
3 61 60 2
3 55 61 2
3 62 63 64
3 62 65 63
3 62 66 65
3 20 18 62
3 20 62 64
3 67 68 69
3 70 2 58
3 68 71 69
3 72 68 73
3 14 12 74
3 74 73 75
3 65 74 75
3 5 2 70
3 7 5 70
3 73 74 72
3 58 76 68
3 77 70 68
3 70 58 68
3 72 77 68
3 78 18 16
3 14 78 16
3 7 70 79
3 66 14 74
3 7 80 81
3 82 7 79
3 82 80 7
3 66 74 65
3 9 81 12
3 7 81 9
3 81 80 12
3 74 12 83
3 12 80 83
3 37 35 38
3 50 38 44
3 38 35 44
3 50 44 46
3 40 43 37
3 37 43 48
3 43 47 48
3 37 48 51
3 37 51 35
3 53 20 56
3 56 20 84
3 85 56 84
3 86 56 85
3 64 87 20
3 88 87 64
3 89 86 90
3 89 56 86
3 87 84 20
3 56 91 92
3 56 92 93
3 56 93 94
3 56 94 95
3 56 95 96
3 56 96 54
3 97 98 99
3 97 76 100
3 97 100 98
3 101 102 103
3 54 101 103
3 104 54 103
3 104 103 105
3 76 106 107
3 104 55 54
3 76 107 55
3 104 76 55
3 100 76 104
3 108 105 103
3 109 108 103
3 110 108 109
3 55 107 61
3 111 76 59
3 112 111 113
3 107 106 114
3 76 58 59
3 76 111 112
3 106 76 112
3 114 112 113
3 113 111 59
3 60 115 59
3 116 114 113
3 59 58 57
3 61 117 116
3 113 115 116
3 61 107 114
3 117 114 116
3 60 61 116
3 61 114 117
3 113 59 115
3 114 106 112
3 60 116 115
3 118 119 63
3 120 121 122
3 65 123 124
3 65 124 118
3 65 118 63
3 125 123 65
3 125 121 120
3 125 120 123
3 126 127 66
3 126 66 128
3 129 128 66
3 62 129 66
3 130 129 62
3 131 132 133
3 131 127 132
3 132 127 126
3 134 131 133
3 18 135 130
3 18 130 62
3 136 135 18
3 136 18 78
3 137 134 138
3 137 138 136
3 137 136 78
3 137 131 134
3 77 72 139
3 72 140 139
3 70 77 139
3 70 139 79
3 140 72 74
3 69 71 141
3 71 142 141
3 68 67 143
3 68 143 144
3 73 145 146
3 75 73 146
3 14 66 127
3 14 127 78
3 78 127 137
3 147 82 139
3 82 79 139
3 148 147 139
3 148 139 140
3 149 148 140
3 82 150 80
3 140 74 149
3 74 83 149
3 80 56 137
3 83 80 137
3 146 145 83
3 146 83 125
3 150 56 80
3 151 83 145
3 91 150 152
3 144 152 151
3 144 91 152
3 142 91 144
3 141 144 143
3 141 142 144
3 91 56 150
3 145 144 151
3 89 121 131
3 121 125 131
3 125 127 131
3 131 137 56
3 89 131 56
3 90 153 89
3 90 154 153
3 155 122 121
3 155 121 156
3 157 155 156
3 157 156 158
3 159 157 158
3 159 158 160
3 161 159 160
3 161 160 162
3 163 161 162
3 163 162 164
3 154 164 153
3 154 163 164
3 120 122 165
3 161 166 167
3 161 168 166
3 159 161 167
3 159 167 169
3 161 170 168
3 161 171 170
3 159 169 172
3 163 173 171
3 163 171 161
3 159 172 174
3 163 175 173
3 157 159 174
3 157 174 176
3 154 175 163
3 157 176 177
3 154 178 175
3 179 157 177
3 180 157 179
3 86 178 154
3 86 181 178
3 86 154 90
3 86 182 181
3 180 155 157
3 183 155 180
3 184 155 183
3 165 155 184
3 165 122 155
3 63 119 185
3 186 63 185
3 186 185 187
3 188 186 187
3 189 187 190
3 189 188 187
3 191 190 192
3 191 189 190
3 193 191 192
3 193 192 194
3 195 193 194
3 195 194 88
3 64 195 88
3 86 85 138
3 196 119 118
3 197 198 190
3 199 197 190
3 190 198 192
3 198 200 192
3 201 199 190
3 200 202 192
3 203 201 187
3 201 190 187
3 202 204 192
3 205 203 187
3 204 206 192
3 207 205 187
3 206 208 194
3 192 206 194
3 208 209 194
3 207 187 210
3 187 185 210
3 210 185 211
3 211 185 212
3 194 209 87
3 209 213 87
3 88 194 87
3 213 214 87
3 185 119 212
3 212 119 215
3 215 119 196
3 84 136 138
3 85 84 138
3 136 87 135
3 84 87 136
3 216 102 217
3 95 101 96
3 91 93 92
3 218 217 219
3 217 102 101
3 91 220 218
3 103 221 220
3 96 101 54
3 220 221 216
3 217 101 95
3 216 221 102
3 221 103 102
3 217 95 94
3 219 217 94
3 93 218 91
3 220 216 218
3 218 219 93
3 219 94 93
3 218 216 217
3 71 68 76
3 97 71 76
3 222 223 224
3 225 226 223
3 227 223 222
3 228 71 97
3 228 97 229
3 230 223 227
3 231 225 223
3 231 223 230
3 232 231 230
3 233 228 229
3 234 233 229
3 234 224 233
3 222 224 234
3 97 99 235
3 229 97 235
3 234 235 236
3 234 229 235
3 222 236 237
3 222 234 236
3 227 222 237
3 238 239 240
3 239 241 242
3 240 239 242
3 241 243 242
3 243 244 242
3 245 242 244
3 246 247 248
3 245 244 249
3 250 251 252
3 245 249 253
3 252 251 254
3 255 256 235
3 251 246 254
3 246 248 254
3 235 256 236
3 254 248 257
3 256 258 236
3 245 253 259
3 248 260 257
3 261 255 235
3 257 260 262
3 258 263 236
3 245 259 264
3 260 245 264
3 262 260 265
3 260 264 265
3 261 235 99
3 263 266 237
3 236 263 237
3 98 261 99
3 266 267 240
3 237 266 240
3 267 238 240
3 250 100 268
3 98 100 250
3 269 270 103
3 103 270 142
3 103 142 109
3 271 272 273
3 274 109 275
3 109 142 275
3 276 271 277
3 274 275 278
3 278 275 279
3 277 271 280
3 271 273 280
3 279 271 278
3 278 271 276
3 281 268 100
3 281 100 104
3 282 281 104
3 282 104 105
3 110 109 274
3 283 110 274
3 283 274 278
3 284 283 278
3 284 278 276
3 285 284 276
3 282 108 286
3 105 108 282
3 287 288 289
3 290 291 288
3 290 288 287
3 290 292 291
3 290 293 292
3 293 290 294
3 295 296 297
3 295 297 298
3 299 300 286
3 301 293 294
3 302 300 299
3 303 301 294
3 283 304 305
3 283 306 304
3 307 300 302
3 307 298 300
3 307 295 298
3 308 303 294
3 308 294 309
3 110 305 310
3 110 283 305
3 311 308 309
3 312 295 307
3 313 311 309
3 284 314 306
3 284 306 283
3 315 295 312
3 315 309 295
3 316 313 309
3 316 309 315
3 284 317 314
3 110 310 318
3 108 110 318
3 287 317 284
3 287 319 317
3 285 287 284
3 287 289 319
3 259 253 308
3 241 291 292
3 243 241 292
3 244 243 292
3 259 308 311
3 244 292 293
3 264 259 313
3 259 311 313
3 249 244 293
3 249 293 301
3 264 313 316
3 265 264 316
3 253 249 301
3 253 301 303
3 265 316 315
3 253 303 308
3 262 265 315
3 262 315 312
3 257 262 312
3 257 312 307
3 254 257 307
3 254 307 302
3 252 254 302
3 252 302 299
3 250 252 299
3 250 299 286
3 250 286 108
3 98 250 108
3 98 108 318
3 261 98 318
3 261 318 310
3 255 261 310
3 255 310 305
3 256 255 305
3 256 305 304
3 256 304 306
3 258 256 306
3 263 258 306
3 263 306 314
3 266 263 314
3 266 314 317
3 267 266 317
3 267 317 319
3 238 267 319
3 238 319 289
3 239 238 289
3 239 289 288
3 241 239 288
3 241 288 291
3 188 189 64
3 189 191 64
3 191 193 64
3 193 195 64
3 188 64 186
3 186 64 63
3 120 132 123
3 123 132 126
3 124 123 128
3 123 126 128
3 129 118 124
3 129 124 128
3 320 321 134
3 320 134 133
3 132 320 133
3 130 135 322
3 130 322 129
3 134 86 138
3 282 142 281
3 142 71 281
3 281 71 268
3 142 282 286
3 142 286 275
3 275 286 300
3 251 250 228
3 268 71 228
3 250 268 228
3 68 144 145
3 73 68 145
3 75 323 65
3 83 137 127
3 148 149 151
3 152 148 151
3 147 148 152
3 150 147 152
3 82 147 150
3 83 151 149
3 125 83 127
3 91 270 324
3 142 270 91
3 89 160 158
3 89 162 160
3 89 164 162
3 89 153 164
3 156 89 158
3 121 89 156
3 200 168 170
3 202 200 170
3 202 170 171
3 135 87 86
3 204 202 171
3 135 86 134
3 204 171 173
3 135 134 321
3 206 204 173
3 322 135 321
3 206 173 175
3 208 206 175
3 322 321 320
3 209 208 175
3 129 322 320
3 209 175 178
3 129 320 132
3 213 209 178
3 118 129 120
3 129 132 120
3 118 120 165
3 213 178 181
3 196 118 165
3 214 213 182
3 215 196 165
3 213 181 182
3 215 165 184
3 87 214 182
3 87 182 86
3 212 215 184
3 212 184 183
3 212 183 180
3 211 212 180
3 211 180 179
3 210 211 179
3 210 179 177
3 207 210 177
3 207 177 176
3 205 207 176
3 205 176 174
3 205 174 172
3 203 205 172
3 203 172 169
3 201 203 169
3 201 169 167
3 199 201 167
3 197 199 167
3 197 167 166
3 198 197 166
3 198 166 168
3 200 198 168
3 246 251 228
3 246 228 233
3 247 246 224
3 246 233 224
3 247 224 223
3 227 237 240
3 230 227 240
3 232 240 242
3 232 230 240
3 232 242 245
3 231 232 245
3 231 245 260
3 225 231 260
3 225 260 248
3 226 225 248
3 226 248 247
3 223 226 247
3 275 300 298
3 279 275 298
3 279 298 297
3 271 279 297
3 271 297 296
3 287 285 276
3 287 276 277
3 290 277 280
3 290 287 277
3 294 290 280
3 294 280 273
3 309 294 273
3 309 273 272
3 295 309 272
3 296 295 272
3 296 272 271
3 141 143 325
3 325 143 67
3 325 67 326
3 326 67 69
3 327 328 69
3 141 327 69
3 329 125 65
3 329 65 323
3 330 329 331
3 330 332 146
3 329 330 146
3 333 331 323
3 331 329 323
3 334 333 75
3 332 334 75
3 146 332 75
3 333 323 75
3 125 329 146
3 326 69 328
3 325 326 335
3 335 326 336
3 327 141 325
3 337 328 327
3 338 328 337
3 339 340 330
3 341 342 331
3 342 339 331
3 341 331 333
3 339 330 331
3 343 341 333
3 344 343 333
3 345 344 334
3 344 333 334
3 346 345 334
3 346 334 332
3 347 346 332
3 340 347 330
3 347 332 330
3 338 348 336
3 326 338 336
3 328 338 326
3 337 325 335
3 337 327 325
3 349 337 335
3 350 351 352
3 337 350 338
3 350 352 338
3 353 340 339
3 354 355 353
3 356 339 342
3 356 353 339
3 354 356 357
3 354 353 356
3 341 356 342
3 358 356 341
3 358 357 356
3 343 358 341
3 358 359 357
3 359 343 344
3 359 358 343
3 345 359 344
3 360 359 345
3 346 360 345
3 361 360 346
3 361 346 347
3 355 361 347
3 355 347 340
3 353 355 340
3 349 335 336
3 349 336 348
3 362 349 348
3 362 348 363
3 364 348 352
3 352 348 338
3 350 349 365
3 337 349 350
3 366 367 368
3 369 366 368
3 368 367 370
3 370 367 363
3 351 369 371
3 369 368 371
3 370 363 364
3 371 364 351
3 351 364 352
3 364 363 348
3 351 350 372
3 369 372 373
3 369 351 372
3 374 375 376
3 374 376 373
3 377 375 374
3 362 375 377
3 378 373 372
3 378 374 373
3 365 362 377
3 372 365 378
3 350 365 372
3 349 362 365
3 361 355 379
3 355 354 379
3 380 359 381
3 359 360 381
3 380 382 357
3 380 357 359
3 381 360 383
3 357 382 384
3 361 379 383
3 360 361 383
3 381 383 385
3 357 384 354
3 354 384 379
3 363 367 375
3 363 375 362
3 376 367 366
3 376 375 367
3 373 366 369
3 373 376 366
3 370 364 386
3 370 386 387
3 368 370 387
3 371 368 388
3 364 388 386
3 364 371 388
3 365 377 389
3 374 378 390
3 390 365 389
3 378 365 390
3 391 392 382
3 391 382 393
3 393 382 380
3 394 391 393
3 380 394 393
3 395 394 380
3 396 384 382
3 396 382 392
3 380 381 397
3 395 380 397
3 398 399 379
3 398 379 384
3 400 398 384
3 396 400 384
3 401 385 383
3 402 397 381
3 385 402 381
3 403 401 383
3 404 402 385
3 405 403 383
3 401 404 385
3 405 383 399
3 383 379 399
3 406 389 377
3 406 377 407
3 377 374 407
3 408 392 391
3 409 408 391
3 409 391 394
3 410 409 394
3 411 410 395
3 410 394 395
3 412 392 408
3 396 392 412
3 411 395 413
3 413 395 397
3 414 415 398
3 415 399 398
3 416 414 400
3 414 398 400
3 412 416 400
3 412 400 396
3 413 397 402
3 417 402 404
3 418 417 404
3 419 418 401
3 403 419 401
3 418 404 401
3 420 403 405
3 420 405 415
3 415 405 399
3 421 422 423
3 424 421 425
3 421 423 425
3 426 424 425
3 427 426 428
3 426 425 428
3 429 427 430
3 427 428 430
3 429 431 427
3 432 433 424
3 433 421 424
3 432 424 426
3 434 432 427
3 432 426 427
3 431 434 427
3 387 435 436
3 437 438 439
3 440 441 442
3 440 443 441
3 444 445 443
3 444 443 440
3 423 445 444
3 446 423 444
3 447 436 438
3 447 438 437
3 448 423 446
3 368 436 447
3 368 387 436
3 439 448 446
3 439 438 448
3 388 449 450
3 449 388 368
3 447 449 368
3 451 432 452
3 453 454 455
3 432 434 452
3 455 454 456
3 455 456 457
3 434 431 450
3 452 434 450
3 457 456 433
3 450 431 388
3 457 433 458
3 458 433 432
3 458 432 451
3 459 460 461
3 459 461 462
3 463 459 462
3 464 374 465
3 463 462 466
3 407 374 464
3 467 463 466
3 468 467 466
3 469 470 471
3 469 465 470
3 469 464 465
3 460 469 471
3 460 471 461
3 374 390 472
3 374 472 465
3 390 473 474
3 472 390 474
3 475 476 477
3 478 472 474
3 479 475 477
3 480 478 474
3 481 480 482
3 480 474 482
3 481 482 475
3 475 482 476
3 474 473 483
3 473 484 483
3 483 484 485
3 474 483 486
3 483 485 486
3 474 486 487
3 482 474 487
3 487 486 488
3 487 488 489
3 482 487 489
3 482 489 490
3 491 408 409
3 492 491 409
3 492 493 491
3 492 409 410
3 494 493 492
3 411 492 410
3 494 492 411
3 495 412 491
3 412 408 491
3 496 495 493
3 495 491 493
3 494 411 413
3 494 413 497
3 494 497 498
3 499 415 414
3 414 500 499
3 496 500 414
3 495 414 416
3 495 496 414
3 495 416 412
3 420 501 419
3 417 497 413
3 502 501 420
3 498 497 417
3 498 417 418
3 501 418 419
3 501 498 418
3 420 419 403
3 417 413 402
3 502 420 499
3 420 415 499
3 501 502 500
3 502 499 500
3 422 421 503
3 445 422 503
3 445 503 504
3 505 445 504
3 505 504 506
3 441 505 506
3 428 448 438
3 428 425 448
3 438 436 435
3 428 438 435
3 428 435 430
3 425 423 448
3 421 433 456
3 454 506 504
3 421 456 503
3 456 454 504
3 456 504 503
3 445 505 443
3 505 441 443
3 445 423 422
3 454 453 506
3 453 442 441
3 506 453 441
3 437 507 508
3 447 437 508
3 446 509 510
3 439 446 510
3 439 510 511
3 437 439 511
3 437 511 507
3 440 442 512
3 444 513 514
3 446 444 514
3 509 446 514
3 440 512 513
3 440 513 444
3 509 515 516
3 510 516 517
3 510 509 516
3 511 510 517
3 511 517 518
3 507 511 518
3 507 518 519
3 508 507 519
3 508 519 449
3 447 508 449
3 458 516 515
3 450 449 452
3 452 449 519
3 452 519 518
3 452 518 451
3 451 518 517
3 451 517 458
3 458 517 516
3 455 520 521
3 455 521 453
3 457 522 520
3 455 457 520
3 458 515 457
3 457 515 522
3 485 484 523
3 485 523 469
3 486 485 524
3 485 469 524
3 488 486 524
3 489 488 525
3 488 524 525
3 490 489 525
3 490 525 526
3 464 527 407
3 460 524 469
3 525 524 460
3 525 460 459
3 525 459 526
3 469 527 464
3 469 523 527
3 528 529 463
3 529 459 463
3 467 528 463
3 529 526 459
3 467 468 479
3 467 479 477
3 530 531 470
3 530 470 465
3 532 533 461
3 532 461 471
3 534 532 471
3 531 534 471
3 470 531 471
3 535 536 462
3 537 468 466
3 462 461 533
3 535 462 533
3 462 537 466
3 536 537 462
3 530 465 472
3 530 472 538
3 531 538 539
3 531 530 538
3 531 539 540
3 534 531 540
3 532 534 540
3 532 540 541
3 533 541 542
3 533 532 541
3 481 542 541
3 478 538 472
3 539 538 478
3 480 539 478
3 540 539 480
3 481 540 480
3 541 540 481
3 476 543 544
3 482 490 476
3 476 490 543
3 477 476 544
3 545 475 479
3 546 547 475
3 475 542 481
3 547 542 475
3 545 546 475
3 496 493 494
3 500 496 494
3 498 500 494
3 501 500 498
3 515 509 514
3 522 515 514
3 522 514 513
3 520 522 513
3 520 513 512
3 521 520 512
3 453 521 512
3 453 512 442
3 467 477 544
3 528 467 544
3 528 544 543
3 529 528 543
3 526 529 543
3 526 543 490
3 545 479 468
3 545 468 537
3 546 545 536
3 545 537 536
3 547 546 535
3 546 536 535
3 542 547 535
3 542 535 533
