ply
format ascii 1.0
comment Created by Blender 2.79 (sub 0) - www.blender.org, source file: ''
element vertex 67
property float x
property float y
property float z
property float nx
property float ny
property float nz
element face 130
property list uchar uint vertex_indices
end_header
0.080768 0.275306 0.056844 0.729698 -0.308084 0.610401
0.062309 0.256028 -0.058992 0.532670 -0.516617 -0.670309
0.080309 0.291997 -0.059483 0.733146 -0.107456 -0.671499
0.077944 0.334594 0.056924 0.721702 0.300638 0.623463
0.073007 0.337795 -0.059282 0.659261 0.353832 -0.663411
0.053601 0.360957 0.057585 0.412946 0.646138 0.641804
0.047119 0.362778 -0.058581 0.344432 0.663259 -0.664388
-0.002567 0.376694 0.059104 0.050874 0.749199 0.660329
-0.012982 0.376910 -0.056954 -0.026185 0.750908 -0.659871
-0.061731 0.365316 0.060715 -0.408216 0.645436 0.645527
-0.069544 0.362236 -0.055413 -0.487442 0.614887 -0.619861
-0.094295 0.316712 0.061599 -0.735618 0.162267 0.657613
-0.098546 0.311697 -0.054626 -0.780999 0.108432 -0.615009
-0.085074 0.261634 0.061348 -0.627277 -0.435011 0.645955
-0.085389 0.257835 -0.054983 -0.631550 -0.475784 -0.612140
-0.049537 0.239887 0.060384 -0.452864 -0.269295 0.849910
-0.052858 0.239887 -0.055867 -0.488571 -0.275277 -0.827937
-0.049537 0.201101 0.060384 -0.283670 0.300882 0.910459
-0.052858 0.201065 -0.055867 -0.322703 0.301584 -0.897153
-0.123555 0.201771 -0.053948 -0.074343 0.725028 -0.684683
-0.166317 0.196339 0.063556 -0.229286 0.714286 0.661184
-0.181080 0.191353 -0.052387 -0.356426 0.676077 -0.644856
-0.202090 0.170657 0.064525 -0.679189 0.355419 0.642109
-0.206682 0.167985 -0.051693 -0.732109 0.310434 -0.606281
-0.202843 -0.179744 0.064542 -0.566546 -0.571062 0.594012
-0.205492 -0.179609 -0.051725 -0.598712 -0.568041 -0.564623
-0.141777 -0.181629 -0.053452 0.550859 -0.590655 -0.589618
-0.139097 -0.180677 0.062803 0.584216 -0.582812 0.564745
-0.135805 0.083333 0.062724 0.440565 -0.294229 0.848109
-0.138174 0.084528 -0.053551 0.377056 -0.301309 -0.875790
-0.118924 0.089446 0.062267 -0.168767 -0.275582 0.946318
-0.122246 0.089446 -0.053984 -0.232398 -0.281259 -0.931028
-0.118627 -0.609667 0.062255 -0.704276 -0.284158 0.650563
-0.118242 -0.619272 -0.054092 -0.597705 -0.557543 -0.576067
-0.105387 -0.622848 0.061898 -0.260323 -0.720878 0.642262
-0.042853 -0.623090 -0.056133 0.250374 -0.725547 -0.640980
-0.032798 -0.620269 0.059932 0.585772 -0.566759 0.579333
-0.030575 -0.611454 -0.056473 0.705039 -0.297800 -0.643544
-0.026408 -0.196882 0.059755 0.325999 -0.303171 0.895413
-0.029730 -0.196882 -0.056495 0.276803 -0.301798 -0.912290
0.008287 -0.196882 0.058814 -0.277047 -0.304819 0.911191
0.004965 -0.196882 -0.057436 -0.326212 -0.305734 -0.894467
0.013060 -0.619676 0.058684 -0.566515 -0.568285 0.596698
0.011420 -0.622090 -0.057614 -0.579974 -0.588855 -0.562883
0.097552 -0.621199 0.056389 0.585681 -0.581591 0.564501
0.095224 -0.620288 -0.059888 0.567125 -0.569781 -0.594684
0.103270 0.085683 0.056234 0.407270 -0.302011 0.861904
0.099289 0.085163 -0.059993 0.366222 -0.297189 -0.881771
0.114826 0.089438 -0.060418 -0.242378 -0.285318 -0.927244
0.118148 0.089446 0.055833 -0.197485 -0.285745 0.937712
0.118161 -0.172498 0.055831 -0.662008 -0.414502 0.624409
0.117411 -0.176632 -0.060489 -0.653432 -0.482650 -0.583087
0.144522 -0.185362 0.055117 -0.126408 -0.740501 0.660024
0.141845 -0.183905 -0.061152 -0.153081 -0.714133 -0.683035
0.165431 -0.184381 0.054548 0.117313 -0.720115 0.683828
0.162923 -0.186018 -0.061726 0.055849 -0.746269 -0.663289
0.193319 -0.177469 0.053793 0.654073 -0.490585 0.575732
0.189996 -0.177469 -0.062458 0.633473 -0.472549 -0.612659
0.190977 0.161428 0.053856 0.736625 0.288858 0.611469
0.185503 0.166193 -0.062338 0.676504 0.353038 -0.646260
0.164228 0.188864 0.054578 0.419538 0.632221 0.651326
0.141613 0.198538 -0.061146 0.224006 0.717612 -0.659413
0.127051 0.201482 0.055587 0.130284 0.730552 0.670278
0.028094 0.200990 -0.058063 0.279305 0.299844 -0.912168
0.031414 0.201064 0.058186 0.324412 0.296518 0.898221
0.031944 0.234163 0.058175 0.538316 -0.253548 0.803674
0.028093 0.235035 -0.058063 0.453871 -0.267586 -0.849910
3 0 1 2
3 3 0 2
3 3 2 4
3 5 3 4
3 5 4 6
3 7 5 6
3 7 6 8
3 9 7 8
3 9 8 10
3 11 9 10
3 11 10 12
3 13 11 12
3 13 12 14
3 15 13 14
3 15 14 16
3 17 15 16
3 17 16 18
3 17 18 19
3 20 17 19
3 20 19 21
3 22 20 21
3 22 21 23
3 24 22 23
3 24 23 25
3 24 25 26
3 27 24 26
3 28 27 26
3 28 26 29
3 30 28 29
3 30 29 31
3 32 30 31
3 32 31 33
3 34 32 33
3 34 33 35
3 36 34 35
3 36 35 37
3 38 36 37
3 38 37 39
3 40 38 39
3 40 39 41
3 42 40 41
3 42 41 43
3 44 42 43
3 44 43 45
3 46 44 45
3 46 45 47
3 46 47 48
3 49 46 48
3 50 49 48
3 50 48 51
3 52 50 51
3 52 51 53
3 54 52 53
3 54 53 55
3 56 54 55
3 56 55 57
3 58 56 57
3 58 57 59
3 60 58 59
3 60 59 61
3 62 60 61
3 62 61 63
3 64 62 63
3 65 64 63
3 65 63 66
3 66 1 65
3 1 66 16
3 66 63 18
3 63 47 18
3 47 31 18
3 47 39 31
3 65 17 64
3 64 17 46
3 46 17 30
3 46 30 38
3 64 46 62
3 63 61 47
3 62 49 60
3 61 59 48
3 60 49 58
3 59 57 55
3 58 54 56
3 59 55 53
3 58 52 54
3 59 53 51
3 58 50 52
3 59 51 48
3 58 49 50
3 62 46 49
3 61 48 47
3 47 45 41
3 46 40 44
3 45 43 41
3 44 40 42
3 47 41 39
3 46 38 40
3 39 37 33
3 38 32 36
3 37 35 33
3 36 32 34
3 39 33 31
3 38 30 32
3 31 29 23
3 30 22 28
3 28 24 27
3 29 26 25
3 29 25 23
3 28 22 24
3 31 23 21
3 30 20 22
3 31 21 19
3 30 17 20
3 31 19 18
3 66 18 16
3 65 15 17
3 0 15 65
3 14 12 16
3 13 15 11
3 12 10 16
3 11 15 9
3 10 8 16
3 9 15 7
3 8 6 16
3 7 15 5
3 6 4 16
3 5 15 3
3 4 2 16
3 15 0 3
3 2 1 16
3 1 0 65
