ply
format ascii 1.0
comment Created by Blender 2.79 (sub 0) - www.blender.org, source file: ''
element vertex 257
property float x
property float y
property float z
property float s
property float t
element face 480
property list uchar uint vertex_indices
end_header
0.000000 0.831470 0.555570 0.650682 0.542354
0.000000 0.707107 0.707107 0.703491 0.558152
-0.137950 0.707107 0.693520 0.711001 0.518406
0.000000 0.555570 0.831470 0.760717 0.575340
-0.162212 0.555570 0.815493 0.770360 0.524189
0.000000 0.382683 0.923880 0.824215 0.594342
-0.180240 0.382683 0.906127 0.836177 0.530635
0.000000 0.195090 0.980785 0.895856 0.615517
-0.191342 0.195090 0.961940 0.910988 0.537951
0.000000 0.000000 1.000000 0.981336 0.640776
-0.195090 0.000000 0.980785 0.999319 0.546569
0.000000 0.980785 0.195090 0.552619 0.513349
-0.038060 0.980785 0.191342 0.554416 0.503787
0.000000 1.000000 -0.000001 0.504948 0.499424
0.000000 0.923880 0.382683 0.600805 0.527538
-0.074658 0.923880 0.375330 0.604426 0.508321
-0.108386 0.831470 0.544895 0.656195 0.513156
-0.212608 0.831470 0.513280 0.655940 0.483457
-0.270598 0.707107 0.653281 0.710690 0.477988
-0.318190 0.555570 0.768178 0.770006 0.472204
-0.353553 0.382683 0.853553 0.835836 0.465900
-0.375330 0.195090 0.906127 0.910883 0.458817
-0.382684 0.000000 0.923879 0.999319 0.450463
-0.074658 0.980785 0.180240 0.554316 0.494060
-0.146447 0.923880 0.353553 0.604241 0.488771
-0.544895 0.195090 0.815493 0.895557 0.381024
-0.513280 0.382683 0.768178 0.823104 0.402406
-0.555570 0.000000 0.831469 0.980954 0.355822
-0.108387 0.980785 0.162212 0.552324 0.484539
-0.212608 0.923880 0.318190 0.600259 0.469634
-0.308658 0.831470 0.461940 0.649932 0.454378
-0.392848 0.707107 0.587938 0.702575 0.438404
-0.461940 0.555570 0.691342 0.759662 0.421270
-0.500000 0.707107 0.500000 0.686955 0.401133
-0.587938 0.555570 0.587938 0.739682 0.373267
-0.653282 0.382683 0.653281 0.798365 0.342483
-0.693520 0.195090 0.693520 0.865482 0.307475
-0.707107 0.000000 0.707107 0.944633 0.266191
-0.137950 0.980785 0.137950 0.548515 0.475588
-0.270598 0.923880 0.270598 0.592632 0.451635
-0.392848 0.831470 0.392847 0.638396 0.427015
-0.831470 0.000000 0.555570 0.891532 0.185024
-0.815493 0.195090 0.544895 0.821676 0.240973
-0.162212 0.980785 0.108386 0.543034 0.467549
-0.318190 0.923880 0.212607 0.581649 0.435460
-0.461940 0.831470 0.308658 0.621765 0.402406
-0.587938 0.707107 0.392847 0.664401 0.367577
-0.691342 0.555570 0.461940 0.710776 0.329995
-0.768178 0.382683 0.513280 0.762471 0.288385
-0.653282 0.707107 0.270598 0.635748 0.339010
-0.768178 0.555570 0.318189 0.673995 0.293099
-0.853554 0.382683 0.353553 0.716713 0.242185
-0.906128 0.195090 0.375330 0.765707 0.184088
-0.923880 0.000000 0.382683 0.823531 0.115497
-0.180240 0.980785 0.074658 0.536092 0.460731
-0.353554 0.923880 0.146446 0.567724 0.421727
-0.513280 0.831470 0.212607 0.600662 0.381485
-0.980785 0.000000 0.195090 0.743134 0.060361
-0.191342 0.980785 0.038060 0.527951 0.455395
-0.375331 0.923880 0.074658 0.551387 0.410962
-0.544895 0.831470 0.108386 0.575879 0.365055
-0.693520 0.707107 0.137949 0.602064 0.316529
-0.815493 0.555570 0.162211 0.630702 0.264003
-0.906128 0.382683 0.180240 0.662775 0.205676
-0.961940 0.195090 0.191341 0.699632 0.139049
-0.831470 0.555570 -0.000000 0.582517 0.243845
-0.923880 0.382683 -0.000000 0.602674 0.180298
-0.980785 0.195090 -0.000000 0.625922 0.107644
-1.000000 0.000000 -0.000000 0.653353 0.021820
-0.195091 0.980785 -0.000000 0.518925 0.451747
-0.382684 0.923880 -0.000000 0.533258 0.403580
-0.555570 0.831470 -0.000000 0.548354 0.353751
-0.707107 0.707107 -0.000000 0.564615 0.301009
-0.191342 0.980785 -0.038061 0.509357 0.449928
-0.375331 0.923880 -0.074658 0.514027 0.399870
-0.544895 0.831470 -0.108387 0.519130 0.348017
-0.693520 0.707107 -0.137950 0.524818 0.293063
-0.815493 0.555570 -0.162212 0.531261 0.233430
-0.906128 0.382683 -0.180240 0.538680 0.167070
-0.961940 0.195090 -0.191342 0.547363 0.091144
-0.980785 0.000000 -0.195091 0.557588 0.001443
-0.768178 0.555570 -0.318190 0.478884 0.233193
-0.653282 0.707107 -0.270598 0.484188 0.293019
-0.853554 0.382683 -0.353554 0.473227 0.166553
-0.906127 0.195090 -0.375331 0.466946 0.090253
-0.923880 0.000000 -0.382684 0.459491 0.000100
-0.180240 0.980785 -0.074658 0.499615 0.450010
-0.353554 0.923880 -0.146447 0.494431 0.399980
-0.513280 0.831470 -0.212608 0.489324 0.348087
-0.318190 0.923880 -0.212608 0.475221 0.403912
-0.461940 0.831470 -0.308659 0.460078 0.353973
-0.587938 0.707107 -0.392848 0.444283 0.300907
-0.691342 0.555570 -0.461940 0.427392 0.243184
-0.768178 0.382683 -0.513280 0.408821 0.178821
-0.815493 0.195090 -0.544895 0.387749 0.105073
-0.831470 0.000000 -0.555571 0.362819 0.017928
-0.162212 0.980785 -0.108387 0.490073 0.451992
-0.653282 0.382683 -0.653282 0.347939 0.203458
-0.693520 0.195090 -0.693520 0.312819 0.135109
-0.707107 0.000000 -0.707107 0.271288 0.054331
-0.137950 0.980785 -0.137950 0.481098 0.455799
-0.270598 0.923880 -0.270599 0.457136 0.411522
-0.392848 0.831470 -0.392848 0.432516 0.365464
-0.500000 0.707107 -0.500000 0.406638 0.316448
-0.587938 0.555570 -0.587938 0.378765 0.263058
-0.308658 0.831470 -0.461940 0.407708 0.382133
-0.392848 0.707107 -0.587938 0.372712 0.339070
-0.461940 0.555570 -0.691342 0.334891 0.292090
-0.513280 0.382683 -0.768178 0.292942 0.239571
-0.544895 0.195090 -0.815493 0.245055 0.179276
-0.555570 0.000000 -0.831470 0.188435 0.107999
-0.108386 0.980785 -0.162212 0.473036 0.461287
-0.212608 0.923880 -0.318190 0.440875 0.422525
-0.375330 0.195090 -0.906128 0.187099 0.235949
-0.353553 0.382683 -0.853554 0.245978 0.285823
-0.382683 0.000000 -0.923880 0.117480 0.176962
-0.074658 0.980785 -0.180240 0.466199 0.468245
-0.146447 0.923880 -0.353554 0.427070 0.436500
-0.212608 0.831470 -0.513280 0.386618 0.403348
-0.270598 0.707107 -0.653282 0.343831 0.367925
-0.318190 0.555570 -0.768178 0.297483 0.329198
-0.108386 0.831470 -0.544896 0.370074 0.428300
-0.074658 0.923880 -0.375331 0.416258 0.452914
-0.137950 0.707107 -0.693520 0.321132 0.401915
-0.162212 0.555570 -0.815493 0.268021 0.372980
-0.180240 0.382683 -0.906128 0.208906 0.340481
-0.191342 0.195090 -0.961940 0.141241 0.303019
-0.195090 0.000000 -0.980786 0.061210 0.258670
-0.038060 0.980785 -0.191342 0.460851 0.476408
0.000000 0.195090 -0.980785 0.109334 0.377967
-0.000000 0.382683 -0.923880 0.183228 0.401473
0.000000 0.000000 -1.000000 0.021886 0.350083
0.000000 0.980785 -0.195091 0.457202 0.485459
-0.000000 0.923880 -0.382684 0.408863 0.471133
-0.000000 0.831470 -0.555571 0.358729 0.456029
0.000000 0.707107 -0.707107 0.305521 0.439736
0.000000 0.555570 -0.831470 0.247693 0.421764
0.137950 0.707107 -0.693520 0.297635 0.479920
0.108386 0.831470 -0.544896 0.353036 0.485460
0.162212 0.555570 -0.815493 0.237344 0.473662
0.180240 0.382683 -0.906128 0.170030 0.466456
0.191342 0.195090 -0.961940 0.092728 0.457950
0.195090 0.000000 -0.980786 0.001172 0.447786
0.038060 0.980785 -0.191342 0.455391 0.495051
0.074658 0.923880 -0.375331 0.405176 0.490454
0.382684 0.000000 -0.923880 0.000100 0.548099
0.375330 0.195090 -0.906127 0.092223 0.539889
0.074658 0.980785 -0.180240 0.455490 0.504813
0.146447 0.923880 -0.353554 0.405343 0.510127
0.212608 0.831470 -0.513280 0.353227 0.515448
0.270598 0.707107 -0.653282 0.297803 0.520896
0.318190 0.555570 -0.768178 0.237435 0.526632
0.353553 0.382683 -0.853554 0.169948 0.532885
0.392847 0.707107 -0.587938 0.306033 0.561047
0.308658 0.831470 -0.461940 0.359300 0.544820
0.461940 0.555570 -0.691342 0.248006 0.578552
0.513280 0.382683 -0.768178 0.183135 0.598050
0.544895 0.195090 -0.815493 0.108005 0.620562
0.555570 0.000000 -0.831470 0.019077 0.647148
0.108386 0.980785 -0.162212 0.457496 0.514366
0.212608 0.923880 -0.318190 0.409359 0.529387
0.707107 0.000000 -0.707107 0.057881 0.740814
0.693520 0.195090 -0.693520 0.139540 0.696813
0.137950 0.980785 -0.137950 0.461330 0.523342
0.270598 0.923880 -0.270598 0.417069 0.547485
0.392848 0.831470 -0.392848 0.371017 0.572427
0.500000 0.707107 -0.500000 0.321996 0.598796
0.587938 0.555570 -0.587938 0.268615 0.627355
0.653281 0.382683 -0.653282 0.209238 0.658997
0.691342 0.555570 -0.461940 0.298320 0.671174
0.587938 0.707107 -0.392848 0.345047 0.632661
0.768178 0.382683 -0.513280 0.246057 0.714126
0.815493 0.195090 -0.544895 0.186295 0.764738
0.831470 0.000000 -0.555570 0.115288 0.824368
0.162212 0.980785 -0.108387 0.466844 0.531394
0.318190 0.923880 -0.212608 0.428170 0.563720
0.461940 0.831470 -0.308659 0.387916 0.597191
0.353553 0.923880 -0.146447 0.442229 0.577461
0.513280 0.831470 -0.212608 0.409329 0.618147
0.653281 0.707107 -0.270598 0.374281 0.661311
0.768177 0.555570 -0.318190 0.336069 0.708239
0.853553 0.382683 -0.353554 0.293362 0.760660
0.906127 0.195090 -0.375330 0.245239 0.821793
0.923880 0.000000 -0.382684 0.187885 0.894028
0.180240 0.980785 -0.074658 0.473824 0.538211
0.906127 0.382683 -0.180240 0.348869 0.796758
0.961939 0.195090 -0.191342 0.313961 0.865853
0.980785 0.000000 -0.195090 0.272261 0.947513
0.191342 0.980785 -0.038061 0.481998 0.543531
0.375330 0.923880 -0.074658 0.458694 0.588180
0.544895 0.831470 -0.108387 0.434413 0.634486
0.693520 0.707107 -0.137950 0.408534 0.683636
0.815493 0.555570 -0.162212 0.380327 0.737083
0.382683 0.923880 -0.000000 0.476925 0.595467
0.195090 0.980785 -0.000000 0.491051 0.547151
0.555570 0.831470 -0.000000 0.462182 0.645586
0.707107 0.707107 -0.000000 0.446446 0.698787
0.831469 0.555570 -0.000000 0.429295 0.756624
0.923879 0.382683 -0.000000 0.410217 0.821128
0.980785 0.195090 -0.000000 0.389645 0.895392
1.000000 0.000000 -0.000000 0.364912 0.983148
0.906127 0.382683 0.180240 0.474942 0.832974
0.961939 0.195090 0.191342 0.469281 0.909488
0.980785 0.000000 0.195090 0.462171 0.999900
0.191342 0.980785 0.038060 0.500631 0.548933
0.375330 0.923880 0.074658 0.496213 0.599049
0.544895 0.831470 0.108386 0.491551 0.651034
0.693520 0.707107 0.137949 0.486527 0.706214
0.815493 0.555570 0.162211 0.481028 0.766176
0.513280 0.831470 0.212607 0.521383 0.650641
0.653281 0.707107 0.270598 0.527222 0.705669
0.768177 0.555570 0.318189 0.533523 0.765455
0.853553 0.382683 0.353553 0.540543 0.832000
0.906127 0.195090 0.375330 0.549785 0.907812
0.923879 0.000000 0.382683 0.560282 0.997445
0.180240 0.980785 0.074658 0.510371 0.548811
0.353553 0.923880 0.146446 0.515813 0.598796
0.815493 0.195090 0.544895 0.628107 0.890612
0.768178 0.382683 0.513280 0.604589 0.818407
0.831469 0.000000 0.555570 0.655553 0.976214
0.162212 0.980785 0.108386 0.519896 0.546794
0.318190 0.923880 0.212607 0.534971 0.594727
0.461940 0.831470 0.308658 0.550528 0.644441
0.587938 0.707107 0.392847 0.566966 0.697208
0.691341 0.555570 0.461939 0.584786 0.754553
0.392847 0.831470 0.392847 0.577870 0.632692
0.500000 0.707107 0.500000 0.604234 0.681182
0.587937 0.555570 0.587937 0.632852 0.733906
0.653281 0.382683 0.653281 0.664907 0.792877
0.693519 0.195090 0.693519 0.701293 0.858614
0.707106 0.000000 0.707106 0.744612 0.937359
0.137950 0.980785 0.137949 0.528840 0.542959
0.270598 0.923880 0.270598 0.552952 0.587009
0.544895 0.195090 0.815492 0.767248 0.813651
0.513280 0.382683 0.768177 0.718438 0.755405
0.555570 0.000000 0.831469 0.824814 0.882482
0.108386 0.980785 0.162211 0.536862 0.537458
0.212607 0.923880 0.318189 0.569072 0.575944
0.308658 0.831470 0.461939 0.602370 0.615861
0.392847 0.707107 0.587937 0.637610 0.658227
0.461939 0.555570 0.691341 0.675833 0.704241
0.270598 0.707107 0.653281 0.665842 0.629259
0.212607 0.831470 0.513280 0.623102 0.594609
0.318189 0.555570 0.768177 0.712169 0.666870
0.353553 0.382683 0.853553 0.763442 0.708558
0.375330 0.195090 0.906127 0.823384 0.756582
0.382683 0.000000 0.923879 0.893178 0.812683
0.074658 0.980785 0.180240 0.543656 0.530503
0.146447 0.923880 0.353553 0.582720 0.561964
0.195090 0.000000 0.980785 0.945972 0.730614
0.038060 0.980785 0.191342 0.548965 0.522360
0.074658 0.923880 0.375330 0.593381 0.545608
0.108386 0.831470 0.544895 0.639291 0.569759
0.137950 0.707107 0.693520 0.687877 0.595417
0.162211 0.555570 0.815492 0.740590 0.623315
0.180240 0.382683 0.906127 0.799565 0.654552
0.191341 0.195090 0.961939 0.866677 0.689331
3 0 1 2
3 1 3 4
3 3 5 6
3 5 7 8
3 7 9 10
3 11 12 13
3 14 15 12
3 0 16 15
3 15 16 17
3 16 2 18
3 2 4 19
3 4 6 20
3 8 21 20
3 8 10 22
3 12 23 13
3 15 24 23
3 21 25 26
3 22 27 25
3 23 28 13
3 23 24 29
3 17 30 29
3 18 31 30
3 18 19 32
3 19 20 26
3 30 31 33
3 31 32 34
3 32 26 35
3 25 36 35
3 27 37 36
3 28 38 13
3 28 29 39
3 29 30 40
3 37 41 42
3 38 43 13
3 38 39 44
3 39 40 45
3 40 33 46
3 34 47 46
3 34 35 48
3 36 42 48
3 45 46 49
3 47 50 49
3 47 48 51
3 42 52 51
3 42 41 53
3 43 54 13
3 43 44 55
3 44 45 56
3 52 53 57
3 54 58 13
3 54 55 59
3 55 56 60
3 56 49 61
3 50 62 61
3 50 51 63
3 52 64 63
3 61 62 65
3 62 63 66
3 64 67 66
3 64 57 68
3 58 69 13
3 58 59 70
3 59 60 71
3 60 61 72
3 69 73 13
3 69 70 74
3 70 71 75
3 71 72 76
3 72 65 77
3 65 66 78
3 67 79 78
3 67 68 80
3 77 81 82
3 77 78 83
3 79 84 83
3 79 80 85
3 73 86 13
3 73 74 87
3 74 75 88
3 75 76 82
3 86 87 89
3 87 88 90
3 88 82 91
3 81 92 91
3 81 83 93
3 84 94 93
3 84 85 95
3 86 96 13
3 92 93 97
3 94 98 97
3 95 99 98
3 96 100 13
3 96 89 101
3 89 90 102
3 90 91 103
3 92 104 103
3 101 102 105
3 102 103 106
3 104 107 106
3 104 97 108
3 98 109 108
3 99 110 109
3 100 111 13
3 100 101 112
3 109 113 114
3 110 115 113
3 111 116 13
3 111 112 117
3 105 118 117
3 105 106 119
3 106 107 120
3 107 108 114
3 118 121 122
3 119 123 121
3 119 120 124
3 120 114 125
3 113 126 125
3 115 127 126
3 116 128 13
3 116 117 122
3 126 129 130
3 127 131 129
3 128 132 13
3 128 122 133
3 122 121 134
3 123 135 134
3 123 124 136
3 124 125 130
3 135 137 138
3 136 139 137
3 136 130 140
3 129 141 140
3 131 142 141
3 132 143 13
3 132 133 144
3 133 134 138
3 142 145 146
3 143 147 13
3 143 144 148
3 144 138 149
3 137 150 149
3 139 151 150
3 139 140 152
3 141 146 152
3 150 153 154
3 151 155 153
3 151 152 156
3 146 157 156
3 145 158 157
3 147 159 13
3 147 148 160
3 148 149 154
3 158 161 162
3 159 163 13
3 159 160 164
3 160 154 165
3 153 166 165
3 155 167 166
3 155 156 168
3 157 162 168
3 167 169 170
3 167 168 171
3 162 172 171
3 161 173 172
3 163 174 13
3 163 164 175
3 164 165 176
3 166 170 176
3 174 175 177
3 175 176 178
3 170 179 178
3 169 180 179
3 169 171 181
3 172 182 181
3 172 173 183
3 174 184 13
3 180 181 185
3 182 186 185
3 182 183 187
3 184 188 13
3 184 177 189
3 177 178 190
3 179 191 190
3 180 192 191
3 189 193 194
3 189 190 195
3 191 196 195
3 192 197 196
3 192 185 198
3 186 199 198
3 186 187 200
3 188 194 13
3 197 198 201
3 199 202 201
3 199 200 203
3 194 204 13
3 193 205 204
3 193 195 206
3 196 207 206
3 196 197 208
3 205 206 209
3 207 210 209
3 208 211 210
3 208 201 212
3 202 213 212
3 202 203 214
3 204 215 13
3 205 216 215
3 213 217 218
3 213 214 219
3 215 220 13
3 216 221 220
3 216 209 222
3 210 223 222
3 211 224 223
3 211 212 218
3 221 222 225
3 223 226 225
3 224 227 226
3 224 218 228
3 217 229 228
3 217 219 230
3 220 231 13
3 220 221 232
3 229 233 234
3 230 235 233
3 231 236 13
3 231 232 237
3 232 225 238
3 225 226 239
3 227 240 239
3 227 228 234
3 239 241 242
3 240 243 241
3 240 234 244
3 233 245 244
3 233 235 246
3 236 247 13
3 237 248 247
3 238 242 248
3 245 246 249
3 247 250 13
3 247 248 251
3 248 242 252
3 242 241 253
3 243 254 253
3 243 244 255
3 245 256 255
3 254 3 1
3 255 5 3
3 256 7 5
3 249 9 7
3 250 11 13
3 251 14 11
3 252 0 14
3 253 1 0
3 0 2 16
3 1 4 2
3 3 6 4
3 5 8 6
3 7 10 8
3 14 12 11
3 0 15 14
3 15 17 24
3 16 18 17
3 2 19 18
3 4 20 19
3 8 20 6
3 8 22 21
3 15 23 12
3 21 26 20
3 22 25 21
3 23 29 28
3 17 29 24
3 18 30 17
3 18 32 31
3 19 26 32
3 30 33 40
3 31 34 33
3 32 35 34
3 25 35 26
3 27 36 25
3 28 39 38
3 29 40 39
3 37 42 36
3 38 44 43
3 39 45 44
3 40 46 45
3 34 46 33
3 34 48 47
3 36 48 35
3 45 49 56
3 47 49 46
3 47 51 50
3 42 51 48
3 42 53 52
3 43 55 54
3 44 56 55
3 52 57 64
3 54 59 58
3 55 60 59
3 56 61 60
3 50 61 49
3 50 63 62
3 52 63 51
3 61 65 72
3 62 66 65
3 64 66 63
3 64 68 67
3 58 70 69
3 59 71 70
3 60 72 71
3 69 74 73
3 70 75 74
3 71 76 75
3 72 77 76
3 65 78 77
3 67 78 66
3 67 80 79
3 77 82 76
3 77 83 81
3 79 83 78
3 79 85 84
3 73 87 86
3 74 88 87
3 75 82 88
3 86 89 96
3 87 90 89
3 88 91 90
3 81 91 82
3 81 93 92
3 84 93 83
3 84 95 94
3 92 97 104
3 94 97 93
3 95 98 94
3 96 101 100
3 89 102 101
3 90 103 102
3 92 103 91
3 101 105 112
3 102 106 105
3 104 106 103
3 104 108 107
3 98 108 97
3 99 109 98
3 100 112 111
3 109 114 108
3 110 113 109
3 111 117 116
3 105 117 112
3 105 119 118
3 106 120 119
3 107 114 120
3 118 122 117
3 119 121 118
3 119 124 123
3 120 125 124
3 113 125 114
3 115 126 113
3 116 122 128
3 126 130 125
3 127 129 126
3 128 133 132
3 122 134 133
3 123 134 121
3 123 136 135
3 124 130 136
3 135 138 134
3 136 137 135
3 136 140 139
3 129 140 130
3 131 141 129
3 132 144 143
3 133 138 144
3 142 146 141
3 143 148 147
3 144 149 148
3 137 149 138
3 139 150 137
3 139 152 151
3 141 152 140
3 150 154 149
3 151 153 150
3 151 156 155
3 146 156 152
3 145 157 146
3 147 160 159
3 148 154 160
3 158 162 157
3 159 164 163
3 160 165 164
3 153 165 154
3 155 166 153
3 155 168 167
3 157 168 156
3 167 170 166
3 167 171 169
3 162 171 168
3 161 172 162
3 163 175 174
3 164 176 175
3 166 176 165
3 174 177 184
3 175 178 177
3 170 178 176
3 169 179 170
3 169 181 180
3 172 181 171
3 172 183 182
3 180 185 192
3 182 185 181
3 182 187 186
3 184 189 188
3 177 190 189
3 179 190 178
3 180 191 179
3 189 194 188
3 189 195 193
3 191 195 190
3 192 196 191
3 192 198 197
3 186 198 185
3 186 200 199
3 197 201 208
3 199 201 198
3 199 203 202
3 193 204 194
3 193 206 205
3 196 206 195
3 196 208 207
3 205 209 216
3 207 209 206
3 208 210 207
3 208 212 211
3 202 212 201
3 202 214 213
3 205 215 204
3 213 218 212
3 213 219 217
3 216 220 215
3 216 222 221
3 210 222 209
3 211 223 210
3 211 218 224
3 221 225 232
3 223 225 222
3 224 226 223
3 224 228 227
3 217 228 218
3 217 230 229
3 220 232 231
3 229 234 228
3 230 233 229
3 231 237 236
3 232 238 237
3 225 239 238
3 227 239 226
3 227 234 240
3 239 242 238
3 240 241 239
3 240 244 243
3 233 244 234
3 233 246 245
3 237 247 236
3 238 248 237
3 245 249 256
3 247 251 250
3 248 252 251
3 242 253 252
3 243 253 241
3 243 255 254
3 245 255 244
3 254 1 253
3 255 3 254
3 256 5 255
3 249 7 256
3 251 11 250
3 252 14 251
3 253 0 252
